<?xml version="1.0" standalone="no"?><!DOCTYPE svg PUBLIC "-//W3C//DTD SVG 1.1//EN" "http://www.w3.org/Graphics/SVG/1.1/DTD/svg11.dtd"><svg t="1706685110809" class="icon" viewBox="0 0 1117 1024" version="1.1" xmlns="http://www.w3.org/2000/svg" p-id="4279" xmlns:xlink="http://www.w3.org/1999/xlink" width="34.90625" height="32"><path d="M511.999069 0a511.999069 511.999069 0 0 1 471.039144 713.540521 511.999069 511.999069 0 0 1-273.686775 270.894053A511.999069 511.999069 0 0 1 511.999069 1023.998138a514.791791 514.791791 0 0 1-232.726849-54.923536H103.330721a46.54537 46.54537 0 0 1-46.54537-46.54537V744.725919a514.791791 514.791791 0 0 1-15.825425-428.217404A511.999069 511.999069 0 0 1 511.999069 0zM132.188851 725.176863v166.632425h166.632424l8.378166 4.654537a436.130116 436.130116 0 0 0 204.799628 50.734453 435.199209 435.199209 0 1 0 0-870.398418 435.664662 435.664662 0 0 0-384.464755 639.533383z m511.999069 24.669046a314.181247 314.181247 0 0 1-121.94887-33.97812 536.668115 536.668115 0 0 1-214.108701-186.181479l-2.792722-4.189084A239.243201 239.243201 0 0 1 255.999535 393.77383a139.63611 139.63611 0 0 1 41.425379-101.468907 46.54537 46.54537 0 0 1 34.443574-17.68724h24.203592c10.239981 0 18.152694 0 26.065407 20.014509l14.429065 35.374481c10.705435 26.530861 22.807231 54.923537 24.669046 59.578073a20.945416 20.945416 0 0 1 0 20.014509 153.134267 153.134267 0 0 1-29.323583 40.959926c-10.239981 10.705435-16.290879 16.756333-7.912713 31.185398A347.22846 347.22846 0 0 0 558.544439 634.413392a33.97812 33.97812 0 0 0 14.894518 4.189083 20.479963 20.479963 0 0 0 15.825426-8.378166c7.912713-8.84362 32.116305-37.236296 40.494472-50.269s9.309074-8.378167 12.56725-8.378166a38.167203 38.167203 0 0 1 12.56725 3.258175c11.636342 4.189083 74.472592 34.909027 86.574388 41.42538l6.050898 2.792722a39.563564 39.563564 0 0 1 17.221787 11.170889 107.985258 107.985258 0 0 1-7.447259 58.647166 128.465221 128.465221 0 0 1-83.781666 58.647166 203.403267 203.403267 0 0 1-27.461769 1.861815z" fill="#665C46" p-id="4280"></path><path d="M511.999069 0a511.999069 511.999069 0 0 1 471.039144 713.540521 511.999069 511.999069 0 0 1-273.686775 270.894053A511.999069 511.999069 0 0 1 511.999069 1023.998138a514.791791 514.791791 0 0 1-232.726849-54.923536H103.330721a46.54537 46.54537 0 0 1-46.54537-46.54537V744.725919a514.791791 514.791791 0 0 1-15.825425-428.217404A511.999069 511.999069 0 0 1 511.999069 0zM132.188851 725.176863v166.632425h166.632424l8.378166 4.654537a436.130116 436.130116 0 0 0 204.799628 50.734453 435.199209 435.199209 0 1 0 0-870.398418 435.664662 435.664662 0 0 0-384.464755 639.533383z m511.999069 24.669046a314.181247 314.181247 0 0 1-121.94887-33.97812 536.668115 536.668115 0 0 1-214.108701-186.181479l-2.792722-4.189084A239.243201 239.243201 0 0 1 255.999535 393.77383a139.63611 139.63611 0 0 1 41.425379-101.468907 46.54537 46.54537 0 0 1 34.443574-17.68724h24.203592c10.239981 0 18.152694 0 26.065407 20.014509l14.429065 35.374481c10.705435 26.530861 22.807231 54.923537 24.669046 59.578073a20.945416 20.945416 0 0 1 0 20.014509 153.134267 153.134267 0 0 1-29.323583 40.959926c-10.239981 10.705435-16.290879 16.756333-7.912713 31.185398A347.22846 347.22846 0 0 0 558.544439 634.413392a33.97812 33.97812 0 0 0 14.894518 4.189083 20.479963 20.479963 0 0 0 15.825426-8.378166c7.912713-8.84362 32.116305-37.236296 40.494472-50.269s9.309074-8.378167 12.56725-8.378166a38.167203 38.167203 0 0 1 12.56725 3.258175c11.636342 4.189083 74.472592 34.909027 86.574388 41.42538l6.050898 2.792722a39.563564 39.563564 0 0 1 17.221787 11.170889 107.985258 107.985258 0 0 1-7.447259 58.647166 128.465221 128.465221 0 0 1-83.781666 58.647166 203.403267 203.403267 0 0 1-27.461769 1.861815z" p-id="4281"></path></svg>