<?xml version="1.0" standalone="no"?><!DOCTYPE svg PUBLIC "-//W3C//DTD SVG 1.1//EN" "http://www.w3.org/Graphics/SVG/1.1/DTD/svg11.dtd"><svg t="1699435662113" class="icon" viewBox="0 0 1024 1024" version="1.1" xmlns="http://www.w3.org/2000/svg" p-id="2310" xmlns:xlink="http://www.w3.org/1999/xlink" width="32" height="32"><path d="M824.62548271 62H199.37451729C160.10810791 62 128.13899609 95.76447911 128.13899609 137.28957558v749.42084884c0 27.68339795 14.36293477 53.05019326 37.58687227 66.25482626 10.77220107 5.96525098 22.12355214 9.03474932 33.64864893 9.03474932h0.05791552c12.22007695 0 24.03474873-3.35907334 33.93822393-9.61389932l277.52895703-163.72586865c0.52123535-0.289575 0.81081123-0.289575 0.98455605-0.1737457l277.99227774 163.957529c21.66023145 12.50965283 47.31660263 12.68339766 68.51351426 0.52123535 23.1081082-13.14671836 37.47104209-38.51351367 37.47104209-66.19691074V137.28957558c0-41.52509648-31.96911182-75.28957559-71.2355212-75.28957558z m3.12741299 824.71042441c0 5.0965251-2.49034747 6.94980703-2.89575263 7.18146739-0.23166035 0.17374482-0.40540518 0.23166035-0.4633207 0.23166034s-0.11583018 0-0.23166036-0.05791464l-278.05019326-163.78378418a67.37837871 67.37837871 0 0 0-69.32432373 0l-277.47104239 163.667954s-0.34749052 0.17374482-0.4633207 0.289575l-2.31660263 11.29343643 1.5057914-11.69884161c-0.57915088-0.34749052-2.60617763-2.49034747-2.60617763-7.0656372V137.28957558c0-4.3436294 2.60617763-7.35521221 3.53281904-7.58687256h625.25096543c0.86872588 0 3.53281816 2.77992246 3.53281816 7.58687256v749.42084884z" p-id="2311"></path><path d="M512 230.3011584c-71.23552119 0-128.8610042 58.20463301-128.8610042 128.22393779s57.62548301 127.70270244 128.8610042 127.70270332S640.8610042 428.02316563 640.8610042 357.94594619s-57.62548301-127.64478779-128.8610042-127.6447878z m0 198.88030899c-40.13513526 0-72.33590742-32.20077217-72.33590742-71.2355212s32.77992305-71.11969102 72.33590742-71.11969101 72.33590742 32.14285752 72.33590742 71.11969101-32.20077217 71.23552119-72.33590742 71.2355212zM694.77992246 578.02316592c0 19.57528916-15.28957529 34.86486445-34.86486446 34.86486533H364.14285752c-19.57528916 0-34.86486445-15.28957529-34.86486533-34.86486533s15.28957529-34.86486445 34.86486533-34.86486446h295.77220049c19.57528916 0 34.86486445 15.28957529 34.86486445 34.86486446z" p-id="2312"></path></svg>