<?xml version="1.0" standalone="no"?><!DOCTYPE svg PUBLIC "-//W3C//DTD SVG 1.1//EN" "http://www.w3.org/Graphics/SVG/1.1/DTD/svg11.dtd"><svg t="1693209359151" class="icon" viewBox="0 0 1024 1024" version="1.1" xmlns="http://www.w3.org/2000/svg" p-id="4019" xmlns:xlink="http://www.w3.org/1999/xlink" width="32" height="32"><path d="M245.76 173.54752 245.76 286.72l757.76 0L1003.52 173.54752 245.76 173.54752zM245.76 588.53376l757.76 0L1003.52 475.3408 245.76 475.3408 245.76 588.53376zM245.76 890.34752l757.76 0 0-113.17248L245.76 777.17504 245.76 890.34752zM20.48 286.72l102.4 0L122.88 173.54752 20.48 173.54752 20.48 286.72zM20.48 593.92l102.4 0 0-113.17248L20.48 480.74752 20.48 593.92zM20.48 880.64l102.4 0 0-113.17248L20.48 767.46752 20.48 880.64z" fill="#272636" p-id="4020"></path></svg>