<?xml version="1.0" standalone="no"?><!DOCTYPE svg PUBLIC "-//W3C//DTD SVG 1.1//EN" "http://www.w3.org/Graphics/SVG/1.1/DTD/svg11.dtd"><svg t="1703551570517" class="icon" viewBox="0 0 1024 1024" version="1.1" xmlns="http://www.w3.org/2000/svg" p-id="5105" xmlns:xlink="http://www.w3.org/1999/xlink" width="32" height="32"><path d="M128 85.333333c25.6 0 42.666667 17.066667 42.666667 42.666667v682.666667c0 12.8 4.266667 21.333333 12.8 29.866666 8.533333 8.533333 17.066667 12.8 29.866666 12.8h682.666667c25.6 0 42.666667 17.066667 42.666667 42.666667s-17.066667 42.666667-42.666667 42.666667H213.333333c-34.133333 0-68.266667-12.8-89.6-38.4-25.6-21.333333-38.4-55.466667-38.4-89.6V128c0-25.6 17.066667-42.666667 42.666667-42.666667z" p-id="5106"></path><path d="M925.866667 311.466667c17.066667 17.066667 17.066667 42.666667 0 59.733333l-256 256c-17.066667 17.066667-42.666667 17.066667-59.733334 0L469.333333 486.4l-140.8 140.8c-17.066667 17.066667-42.666667 17.066667-59.733333 0-17.066667-17.066667-17.066667-42.666667 0-59.733333l170.666667-170.666667c17.066667-17.066667 42.666667-17.066667 59.733333 0l140.8 140.8 226.133333-226.133333c17.066667-17.066667 42.666667-17.066667 59.733334 0z" p-id="5107"></path><path d="M725.333333 341.333333c0-25.6 17.066667-42.666667 42.666667-42.666666h128c25.6 0 42.666667 17.066667 42.666667 42.666666v128c0 25.6-17.066667 42.666667-42.666667 42.666667s-42.666667-17.066667-42.666667-42.666667V384h-85.333333c-25.6 0-42.666667-17.066667-42.666667-42.666667z" p-id="5108"></path></svg>